<svg xmlns="http://www.w3.org/2000/svg" width="400" height="400">
    <g fill-rule="evenodd">
        <path fill="#ebad9f"
            d="M176.8 47.6c-.33.213-2.074.391-3.876.394-1.802.003-3.388.186-3.524.406-.136.22-1.371.4-2.744.4-1.373 0-2.667.17-2.876.378-.209.207-1.235.421-2.28.474-1.045.054-1.9.244-1.9.423s-.709.325-1.576.325c-.867 0-1.688.18-1.824.4-.136.22-.856.4-1.6.4-.744 0-1.464.18-1.6.4-.136.22-.777.4-1.424.4-.647 0-1.176.18-1.176.4 0 .22-.619.4-1.376.4-.757 0-1.488.18-1.624.4-.136.22-.687.4-1.224.4-.537 0-.976.18-.976.4 0 .22-.54.4-1.2.4-.66 0-1.2.18-1.2.4 0 .22-.36.4-.8.4-.44 0-.8.18-.8.4 0 .22-.54.4-1.2.4-.66 0-1.2.18-1.2.4 0 .22-.36.4-.8.4-.44 0-.8.18-.8.4 0 .22-.36.4-.8.4-.44 0-.8.18-.8.4 0 .22-.349.4-.776.4-.677 0-7.887 3.413-8.424 3.987-.11.118-.695.469-1.3.781-.605.312-1.1.717-1.1.9 0 .182-.36.332-.8.332-.44 0-.8.15-.8.332 0 .183-.495.587-1.1.898-.605.31-1.37.848-1.7 1.195-.33.347-.96.772-1.4.946l-.8.315.8.329c.44.181 9.029.341 19.086.357l18.286.028 1.414 1.241 1.414 1.242v17.371c0 19.028-.046 18.688 2.292 17.023 5.686-4.049 17.78-8.195 28.873-9.899 6.545-1.005 19.266-.626 25.635.764 16.638 3.63 28.895 10.308 40.668 22.158l4.869 4.9h35.283l-.11-21.118-.11-21.119-1-.99c-.55-.545-1.63-1.432-2.4-1.971-.77-.539-1.747-1.298-2.171-1.687-.423-.388-1.098-.81-1.5-.937-.401-.128-.729-.4-.729-.605 0-.205-.32-.373-.712-.373-.391 0-.971-.36-1.288-.8-.317-.44-.857-.8-1.2-.8-.343 0-.883-.36-1.2-.8-.317-.44-.814-.8-1.105-.8-.291 0-.915-.36-1.387-.8-.472-.44-1.095-.8-1.383-.8-.289 0-.525-.18-.525-.4 0-.22-.36-.4-.8-.4-.44 0-.8-.18-.8-.4 0-.22-.36-.4-.8-.4-.44 0-.8-.159-.8-.353 0-.195-.315-.454-.7-.577-.385-.122-1.839-.863-3.232-1.646-1.393-.783-2.788-1.424-3.1-1.424-.312 0-.568-.18-.568-.4 0-.22-.236-.4-.525-.4-.289 0-1.27-.36-2.181-.8-.91-.44-1.934-.8-2.275-.8-.34 0-.619-.18-.619-.4 0-.22-.349-.4-.776-.4-.427 0-.888-.18-1.024-.4-.136-.22-.657-.4-1.157-.4s-1.026-.116-1.168-.259c-.434-.434-4.417-1.714-5.375-1.728-.495-.007-.9-.193-.9-.413 0-.22-.54-.4-1.2-.4-.66 0-1.2-.18-1.2-.4 0-.22-.63-.4-1.4-.4-.77 0-1.4-.18-1.4-.4 0-.22-.54-.4-1.2-.4-.66 0-1.2-.18-1.2-.4 0-.22-.72-.4-1.6-.4-.88 0-1.6-.18-1.6-.4 0-.22-.529-.4-1.176-.4-.647 0-1.288-.18-1.424-.4-.136-.22-.957-.4-1.824-.4-.867 0-1.576-.18-1.576-.4 0-.22-.72-.4-1.6-.4-.88 0-1.6-.18-1.6-.4 0-.22-.709-.4-1.576-.4-.867 0-1.688-.18-1.824-.4-.136-.22-1.047-.4-2.024-.4-.977 0-1.776-.18-1.776-.4 0-.22-.99-.4-2.2-.4-1.21 0-2.2-.18-2.2-.4 0-.221-1.04-.4-2.32-.4-1.276 0-2.491-.165-2.7-.368-.407-.394-3.56-.732-9.98-1.072-2.2-.116-4.171-.38-4.38-.586-.513-.505-23.836-.481-24.62.026m-69.464 29.876c-.475.093-1.795 1.195-2.932 2.447a657.9 657.9 0 0 1-3.837 4.183c-.972 1.049-1.767 2.101-1.767 2.34 0 .238-.54.937-1.2 1.554-.66.617-1.2 1.327-1.2 1.579 0 .251-.405.876-.9 1.389-.495.512-1.258 1.539-1.695 2.282-.438.742-1.301 2.16-1.918 3.15-.617.99-1.225 2.115-1.351 2.5-.126.385-.388.7-.583.7-.194 0-.353.36-.353.8 0 .44-.18.8-.4.8-.22 0-.4.36-.4.8 0 .44-.18.8-.4.8-.22 0-.4.36-.4.8 0 .44-.18.8-.4.8-.22 0-.4.36-.4.8 0 .44-.18.8-.4.8-.22 0-.4.36-.4.8 0 .44-.18.8-.4.8-.22 0-.4.36-.4.8 0 .44-.18.8-.4.8-.22 0-.4.36-.4.8 0 .44-.18.8-.4.8-.22 0-.4.45-.4 1s-.18 1-.4 1c-.22 0-.4.349-.4.776 0 .427-.18.888-.4 1.024-.22.136-.4.687-.4 1.224 0 .537-.18.976-.4.976-.22 0-.4.439-.4.976 0 .537-.18 1.088-.4 1.224-.22.136-.4.597-.4 1.024 0 .427-.18.776-.4.776-.22 0-.4.619-.4 1.376 0 .757-.16 1.476-.356 1.597-.195.121-.456.806-.578 1.523a82.335 82.335 0 0 1-.668 3.304c-1.759 7.89-2.141 12.443-2.616 31.2-.299 11.788-.3 11.8-.67 11.8-.171 0-.312.9-.312 2s-.18 2-.4 2c-.22 0-.4.63-.4 1.4 0 .77-.18 1.4-.4 1.4-.22 0-.4.54-.4 1.2 0 .66-.18 1.2-.4 1.2-.22 0-.4.54-.4 1.2 0 .66-.18 1.2-.4 1.2-.22 0-.4.54-.4 1.2 0 .66-.18 1.2-.4 1.2-.22 0-.4.349-.4.776 0 .427-.18.888-.4 1.024-.22.136-.4.687-.4 1.224 0 .537-.18.976-.4.976-.22 0-.4.36-.4.8 0 .44-.18.8-.4.8-.22 0-.4.36-.4.8 0 .44-.136.8-.302.8-.167 0-.556.585-.866 1.3-.309.715-1.073 2.052-1.697 2.972-.624.92-1.135 1.782-1.135 1.917s-.182.462-.405.728c-.222.266-1.23 1.743-2.24 3.283-1.009 1.54-1.997 2.86-2.195 2.933-.198.074-.36.367-.36.652 0 .285-.72 1.26-1.6 2.167-.88.907-1.6 1.743-1.6 1.858 0 .115-2.658 2.86-5.906 6.1-5.72 5.705-8.094 8.766-8.094 10.438 0 .442-.189.922-.42 1.064-.498.308-.421 5.788.081 5.788.186 0 .339.459.339 1.02 0 1.966 3.794 6.58 5.411 6.58.324 0 .589.18.589.4 0 .22.36.4.8.4.44 0 .8.18.8.4 0 .22.278.4.617.4.339 0 1.003.36 1.475.8.472.44 1.095.8 1.383.8.289 0 .525.18.525.4 0 .22.274.4.609.4 1.798 0 6.991 6.831 6.991 9.198 0 .635.189 1.271.419 1.414.246.152.277.452.075.724-.19.255-.396 1.181-.458 2.057-.062.876-.726 2.884-1.475 4.461-2.165 4.563-2.023 8.51.442 12.334 2.189 3.396 2.411 8.131.471 10.071-.431.432-.32 6.066.126 6.341.22.136.4.557.4.935 0 .379.36.948.8 1.265.44.317.8.763.8.99 0 .228.675 1.148 1.5 2.044.825.896 1.725 2.018 2 2.492.598 1.033.683 6.874.1 6.874-.22 0-.4.709-.4 1.576 0 .867-.18 1.688-.4 1.824-.22.136-.4 1.126-.4 2.2 0 1.074-.18 2.064-.4 2.2-.22.136-.4 1.191-.4 2.344 0 1.153-.187 2.283-.417 2.513-.573.573-.584 13.302-.012 13.874.236.236.429.755.429 1.154 0 .399.16 1.038.356 1.42.196.382.778 1.595 1.293 2.695.516 1.1 1.212 2.27 1.549 2.6.336.33 1.239 1.444 2.007 2.476.767 1.031 1.845 2.11 2.395 2.397.55.287 1.272.793 1.604 1.124.677.675 1.835 1.372 4.196 2.523.88.429 1.913.938 2.295 1.13.382.193 1.136.35 1.676.35s1.093.18 1.229.4c.15.243 3.063.4 7.4.4s7.25-.157 7.4-.4c.138-.223 1.996-.4 4.2-.4s4.062-.177 4.2-.4c.136-.22 1.857-.4 3.824-.4 2.117 0 3.576-.163 3.576-.4 0-.225 1.125-.4 2.576-.4 1.417 0 2.688-.18 2.824-.4.136-.22 1.407-.4 2.824-.4 1.451 0 2.576-.175 2.576-.4 0-.222 1.067-.4 2.4-.4s2.4-.178 2.4-.4c0-.222 1.067-.4 2.4-.4s2.4-.178 2.4-.4c0-.226 1.133-.4 2.6-.4s2.6-.174 2.6-.4c0-.521 1.878-.521 2.2 0 .136.22.959.4 1.829.4s1.894.159 2.276.353c.382.195 1.235.6 1.895.9 1.379.628 4.6 3.641 4.6 4.303 0 .244.18.444.4.444.22 0 .4.45.4 1s.18 1 .4 1c.22 0 .4.63.4 1.4 0 .77.18 1.4.4 1.4.22 0 .4.72.4 1.6 0 .88.18 1.6.4 1.6.22 0 .4.799.4 1.776s.18 1.888.4 2.024c.22.136.4.946.4 1.8 0 .854.18 1.664.4 1.8.22.136.4 1.047.4 2.024 0 .977.18 1.776.4 1.776.22 0 .4.81.4 1.8s.155 1.8.345 1.8c.19 0 .449 1.125.575 2.5.536 5.857 2.155 8.7 8.084 14.2.296.275.739.5.984.5s.832.36 1.304.8c.472.44 1.275.8 1.783.8.509 0 .925.18.925.4 0 .22.54.4 1.2.4.66 0 1.2.18 1.2.4 0 .265 17.8.4 52.6.4s52.6-.135 52.6-.4c0-.22.452-.4 1.005-.4.553 0 1.318-.168 1.7-.374.382-.205 1.28-.609 1.995-.897.715-.289 1.3-.66 1.3-.827 0-.166.178-.302.395-.302 1.172 0 6.005-4.994 6.005-6.205 0-.327.135-.596.3-.598.359-.004 1.3-1.941 1.3-2.677 0-.286.18-.52.4-.52.22 0 .4-.529.4-1.176 0-.647.18-1.288.4-1.424.227-.14.4-2.137.4-4.624 0-2.651-.158-4.376-.4-4.376-.22 0-.4-.72-.4-1.6 0-.88-.18-1.6-.4-1.6-.22 0-.4-.72-.4-1.6 0-.88-.18-1.6-.4-1.6-.22 0-.4-.63-.4-1.4 0-.77-.18-1.4-.4-1.4-.22 0-.404-.585-.41-1.3-.005-.715-.191-2.02-.412-2.9-.375-1.486-.632-2.837-1.635-8.6-2.11-12.122-2.432-27.841-.786-38.4.797-5.12 1.224-7.439 1.841-10 .344-1.43.735-3.279.868-4.11.133-.83.398-1.606.588-1.723.19-.118.346-.834.346-1.591s.18-1.376.4-1.376c.22 0 .4-.45.4-1s.18-1 .4-1c.22 0 .4-.439.4-.976 0-.537.18-1.088.4-1.224.22-.136.4-.597.4-1.024 0-.427.18-.776.4-.776.22 0 .4-.272.4-.605 0-.333.18-.963.4-1.4l.8-1.59c.22-.437.4-1.067.4-1.4 0-.333.193-.605.428-.605s.37-.405.3-.9l-.128-.9-16.2-.245c-8.91-.135-21.029-.27-26.931-.3l-10.731-.055-1.169-1.169-1.169-1.169-.006-17.131c-.003-9.422-.14-17.342-.305-17.6-.209-.33-1.19.034-3.297 1.223-4.248 2.397-11.706 5.547-15.792 6.671-3.547.975-4.592 1.229-6.6 1.603-10.56 1.966-21.673 2.035-30.2.187-6.925-1.501-9.385-2.219-14.303-4.175-46.136-18.35-63.644-74.517-36.172-116.04 3.579-5.409 5.421-7.607 10.955-13.072l4.528-4.473-.104-17.527L150.2 77.4l-21-.047c-11.55-.026-21.389.029-21.864.123M305.02 90.445c-.122.525-.266 9.325-.321 19.555-.093 17.52-.143 18.674-.865 19.866-1.287 2.127-1.356 2.134-19.853 2.134-9.449 0-17.181.112-17.181.249s.734 1.602 1.632 3.257c.897 1.654 1.547 3.333 1.443 3.73-.112.429.05.771.401.843 1.639.336 5.634 12.822 7.285 22.767 2.671 16.095-2.2 38.166-11.606 52.587-3.457 5.3-9.43 12.567-10.329 12.567-.491 0-54.826-54.212-54.826-54.702 0-.274-.18-.498-.4-.498-1.152 0 2.688 3.946 36.452 37.456 6.682 6.631 13.559 13.491 15.284 15.245l3.136 3.19-2.836 2.791-2.836 2.792v17.214c0 14.636.088 17.287.586 17.701.456.378 6.442.42 26.803.191l26.217-.295.997-.997c.548-.548.997-1.228.997-1.509 0-.282.135-.572.3-.646.347-.154 3.3-4.599 3.3-4.966 0-.135.54-.75 1.2-1.367.66-.617 1.2-1.419 1.2-1.784s.153-.569.34-.453c.187.115.592-.279.9-.877.308-.597.875-1.435 1.26-1.861.385-.427.7-.929.7-1.117 0-.188.36-.728.8-1.2.44-.472.8-1.095.8-1.383 0-.289.18-.525.4-.525.22 0 .4-.278.4-.617 0-.339.36-1.003.8-1.475.44-.472.8-1.095.8-1.383 0-.289.18-.525.4-.525.22 0 .4-.345.4-.767 0-.421.156-.826.347-.9.495-.19 4.853-8.545 4.853-9.303 0-.346.18-.63.4-.63.22 0 .4-.36.4-.8 0-.44.18-.8.4-.8.22 0 .4-.36.4-.8 0-.44.18-.8.4-.8.22 0 .4-.349.4-.776 0-.427.18-.888.4-1.024.22-.136.4-.687.4-1.224 0-.537.18-.976.4-.976.22 0 .4-.36.4-.8 0-.44.18-.8.4-.8.22 0 .4-.439.4-.976 0-.537.18-1.088.4-1.224.22-.136.4-.597.4-1.024 0-.427.18-.776.4-.776.22 0 .4-.439.4-.976 0-.537.18-1.088.4-1.224.22-.136.4-.687.4-1.224 0-.537.18-.976.4-.976.22 0 .4-.54.4-1.2 0-.66.18-1.2.4-1.2.22 0 .4-.54.4-1.2 0-.66.18-1.2.4-1.2.22 0 .4-.72.4-1.6 0-.88.18-1.6.4-1.6.22 0 .4-.529.4-1.176 0-.647.18-1.288.4-1.424.22-.136.4-.831.4-1.544 0-.713.162-1.467.359-1.676.336-.356.509-1.248 1.064-5.48.122-.935.384-2.06.582-2.5.197-.44.462-1.88.587-3.2.125-1.32.411-4.2.636-6.4.565-5.533.845-19.831.398-20.369-.2-.241-.457-2.057-.57-4.035-.113-1.978-.392-4.856-.619-6.396-.227-1.54-.527-3.61-.666-4.6-.139-.99-.415-1.971-.612-2.18-.197-.209-.359-1.053-.359-1.876s-.18-1.608-.4-1.744c-.22-.136-.4-.867-.4-1.624 0-.757-.18-1.376-.4-1.376-.22 0-.4-.619-.4-1.376 0-.757-.18-1.488-.4-1.624-.22-.136-.4-.777-.4-1.424 0-.647-.18-1.176-.4-1.176-.22 0-.4-.54-.4-1.2 0-.66-.18-1.2-.4-1.2-.22 0-.4-.362-.4-.805 0-.443-.159-1.118-.353-1.5a23.12 23.12 0 0 1-.744-1.695c-.214-.55-.775-1.782-1.246-2.738s-.857-2.081-.857-2.5c0-.419-.18-.762-.4-.762-.22 0-.4-.36-.4-.8 0-.44-.18-.8-.4-.8-.22 0-.4-.36-.4-.8 0-.44-.18-.8-.4-.8-.22 0-.4-.36-.4-.8 0-.44-.18-.8-.4-.8-.22 0-.4-.345-.4-.767 0-.421-.135-.826-.3-.9-.165-.073-1.02-1.573-1.9-3.333-.88-1.76-1.915-3.549-2.3-3.975-.385-.427-.7-1.012-.7-1.3 0-.289-.15-.525-.332-.525-.183 0-.587-.495-.898-1.1-.31-.605-.881-1.391-1.267-1.747-.387-.356-.703-.806-.704-1 0-.194-.54-.983-1.199-1.753-.659-.77-1.199-1.553-1.199-1.74-.001-.186-.541-.843-1.201-1.46s-1.2-1.227-1.2-1.356c0-.336-1.056-1.577-3.8-4.465-1.32-1.39-2.705-2.923-3.079-3.408l-.678-.881-.223.955" />
        <path fill="#445ba9"
            d="M295.8 4.8c-.136.22-.687.4-1.224.4-.537 0-.976.18-.976.4 0 .22-.272.4-.604.4-.332 0-1.168.54-1.859 1.2-.691.66-1.499 1.2-1.796 1.2-.298 0-.541.23-.541.512 0 .281-.36.771-.8 1.088-.44.317-.8.807-.8 1.088 0 .282-.135.513-.3.515-.401.004-1.3 1.978-1.3 2.853 0 .383-.18.808-.4.944-.225.139-.4 2.071-.4 4.424 0 2.517.159 4.176.4 4.176.22 0 .4.45.4 1s.18 1 .4 1c.22 0 .4.36.4.8 0 .44.18.8.4.8.22 0 .4.274.4.609 0 .792 4.199 4.991 4.991 4.991.335 0 .609.159.609.353 0 .8 12.726 1.455 13.486.694.136-.136.538-.247.892-.247.355 0 .905-.36 1.222-.8.317-.44.813-.8 1.102-.8.682 0 3.298-2.616 3.298-3.298 0-.289.36-.785.8-1.102.44-.317.8-.886.8-1.265 0-.378.18-.799.4-.935.22-.136.4-.867.4-1.624 0-.757.18-1.376.4-1.376.231 0 .4-1.259.4-2.976 0-1.637-.18-3.088-.4-3.224-.22-.136-.4-.867-.4-1.624 0-.757-.18-1.376-.4-1.376-.22 0-.4-.36-.4-.8 0-.44-.18-.8-.4-.8-.22 0-.4-.255-.4-.566 0-.311-.559-1.076-1.243-1.7a157.097 157.097 0 0 1-2.182-2.034c-.516-.495-1.217-.9-1.557-.9-.34 0-.619-.135-.621-.3-.004-.359-1.941-1.3-2.677-1.3-.286 0-.52-.18-.52-.4 0-.242-1.725-.4-4.376-.4-2.487 0-4.484.173-4.624.4M42.8 58c0 .22-.46.4-1.022.4-2.427 0-8.578 4.427-8.578 6.174 0 .344-.18.626-.4.626-.22 0-.4.36-.4.8 0 .44-.18.8-.4.8-.22 0-.4.54-.4 1.2 0 .66-.18 1.2-.4 1.2-.239 0-.4 1.533-.4 3.8s.161 3.8.4 3.8c.22 0 .4.54.4 1.2 0 .66.18 1.2.4 1.2.22 0 .4.36.4.8 0 .44.18.8.4.8.22 0 .4.274.4.609 0 .792 4.199 4.991 4.991 4.991.335 0 .609.18.609.4 0 .22.36.4.8.4.44 0 .8.18.8.4 0 .22.54.4 1.2.4.66 0 1.2.18 1.2.4 0 .237 1.459.4 3.576.4 1.967 0 3.688-.18 3.824-.4.136-.22.676-.4 1.2-.4.524 0 1.064-.18 1.2-.4.136-.22.597-.4 1.024-.4.427 0 .776-.18.776-.4 0-.22.239-.4.532-.4.709 0 4.668-4.242 4.668-5.002 0-.329.18-.598.4-.598.22 0 .4-.36.4-.8 0-.44.16-.8.356-.8.195 0 .355-2.79.355-6.2s-.16-6.2-.355-6.2c-.196 0-.356-.36-.356-.8 0-.44-.18-.8-.4-.8-.22 0-.4-.265-.4-.589 0-1.785-5.834-6.211-8.187-6.211-.557 0-1.013-.18-1.013-.4 0-.239-1.533-.4-3.8-.4s-3.8.161-3.8.4M200 134c0 23.262.147 38.8.367 38.8.592 0 3.288-1.239 12.833-5.9 4.95-2.417 11.52-5.613 14.6-7.103 3.08-1.49 9.262-4.484 13.737-6.653 4.475-2.169 8.203-3.944 8.283-3.944.081 0 3.709-1.727 8.063-3.838 4.354-2.111 8.862-4.277 10.017-4.812 1.155-.535 2.1-1.239 2.1-1.563 0-1.025-3.24-6.649-5.984-10.387-1.454-1.98-2.961-4.101-3.348-4.714-1.378-2.178-9.746-10.135-13.958-13.272-9.68-7.209-18.874-11.315-31.51-14.072-2.933-.64-9.003-1.318-11.9-1.329L200 95.2V134m147 125.2c-2.632 1.052-5.673 3.926-7.393 6.987-.8 1.425-1.127 13.813-.364 13.813.196 0 .357.32.357.712 0 .391.36.971.8 1.288.44.317.8.813.8 1.102 0 .619 2.588 3.298 3.187 3.298.227 0 .414.135.416.3.004.359 1.941 1.3 2.677 1.3.286 0 .52.162.52.36 0 .198.765.462 1.7.587.935.125 2.481.344 3.435.486 1.079.16 1.903.089 2.18-.188.245-.245 1.129-.445 1.965-.445.836 0 1.52-.157 1.52-.35 0-.193.518-.454 1.152-.58.633-.127 1.43-.51 1.771-.85.341-.341.778-.62.97-.62.571 0 3.065-2.51 3.676-3.7.312-.605.716-1.1.899-1.1.182 0 .332-.36.332-.8 0-.44.18-.8.4-.8.22 0 .4-.529.4-1.176 0-.647.18-1.288.4-1.424.22-.136.4-1.846.4-3.8 0-1.954-.18-3.664-.4-3.8-.22-.136-.4-.617-.4-1.069 0-.977-1.51-3.863-2.5-4.778-.385-.356-.7-.881-.7-1.167 0-.285-.114-.406-.253-.267s-.728-.256-1.31-.879c-2.9-3.105-11.73-4.399-16.637-2.44" />
        <path fill="#eb4a4a"
            d="M304.584 109.4c0 10.12.052 14.203.116 9.073.063-5.131.063-13.411 0-18.4-.064-4.99-.116-.793-.116 9.327M190.2 95.631c-7.223 1.234-10.585 2.006-15.2 3.488-3.86 1.24-12.222 5.072-14.308 6.558-.616.439-1.384.697-1.706.573-.322-.124-.594-.006-.604.263-.01.268-1.733 1.657-3.828 3.087-47.587 32.47-41.883 107.39 10.168 133.561 6.857 3.448 11.771 5.124 20.678 7.054 9.513 2.061 24.336 1.63 33.8-.983.77-.213 2.03-.556 2.8-.762 4.152-1.112 11.617-4.247 15.992-6.716 2.107-1.189 3.088-1.553 3.297-1.223.2.313.301.246.305-.203.003-.382 1.383-1.644 3.194-2.92 1.754-1.236 3.295-2.418 3.424-2.627.129-.21.466-.381.748-.381.281 0 1.817-1.285 3.412-2.855l2.9-2.854-3.136-3.19c-1.725-1.754-8.602-8.614-15.284-15.245a10542.595 10542.595 0 0 1-24.5-24.414L200 173.484V95.2l-3.9.045c-2.145.024-4.8.198-5.9.386m90.874 173.868c3.781.066 10.081.066 14 0 3.919-.065.826-.119-6.874-.119-7.7 0-10.907.054-7.126.119m-4.974 8.4c3.905.066 10.295.066 14.2 0 3.905-.065.71-.119-7.1-.119s-11.005.054-7.1.119" />
        <path fill="#464545"
            d="m295.788 78.987.298 44.613H278.4c-15.398 0-17.656.076-17.46.588.124.324 1.427 2.214 2.895 4.2l2.669 3.612h34.926l1.385-1.156 1.385-1.156.309-19.544c.17-10.749.35-32.144.4-47.544l.091-28-4.755-.113-4.754-.113.297 44.613M61.169 68.536c-.017.145-.044 2.199-.06 4.564l-.03 4.3H150.2l.2 17.489.2 17.49 3.88-2.69 3.88-2.689.02-17.611c.022-19.271.087-18.713-2.345-19.971-1.179-.61-94.796-1.48-94.866-.882m187.043 166.245c-.129.209-1.67 1.391-3.424 2.627l-3.188 2.247v35.5l.965 1.123.965 1.122 27.135.302c65.564.731 68.133.739 68.169.205.036-.521.024-8.111-.013-9.007-.034-.814-34.266-.716-35.907.103-1.046.522-4.695.589-27.161.5L249.8 269.4l-.104-17.5c-.105-17.607-.238-19.136-1.484-17.119" />
        <path fill="#d6dee6"
            d="M268.4 140.407c-.935.592-15.585 7.584-17.6 8.4-1.625.658-10.265 4.798-24.6 11.787-17.704 8.632-22.943 11.167-24.1 11.661-.715.306-1.3.777-1.3 1.048 0 .487 54.338 54.697 54.826 54.697.899 0 6.872-7.267 10.329-12.567 9.406-14.421 14.277-36.492 11.606-52.587-2.455-14.789-6.314-24.241-9.161-22.439" />
    </g>
</svg>